<svg xmlns="http://www.w3.org/2000/svg" xmlns:xlink="http://www.w3.org/1999/xlink" viewBox="0 0 175 49.23"><defs><style>.cls-1{fill:none;}.cls-2{clip-path:url(#clip-path);}.cls-3{fill:#fff;}.cls-4{fill:#ed2031;}.cls-5{fill:#02927f;}</style><clipPath id="clip-path" transform="translate(0 0.01)"><circle class="cls-1" cx="24.4" cy="24.4" r="24.4"/></clipPath></defs><g id="Layer_2" data-name="Layer 2"><g id="head-foot"><g class="cls-2"><circle class="cls-3" cx="24.4" cy="24.42" r="24.4"/><path class="cls-4" d="M23.53,0a56.59,56.59,0,0,0-1.62,10.06h0q3.06.09,6.09.13h0A66.22,66.22,0,0,1,29.79.58,25.22,25.22,0,0,0,24.4,0Z" transform="translate(0 0.01)"/><path class="cls-4" d="M18.7,10q-3.09-.12-6.21-.28h0c.07-3.58.17-6,.21-6.74A24.7,24.7,0,0,1,19.93.4h0c0,.54-.7,4.14-1.23,9.54Z" transform="translate(0 0.01)"/><path class="cls-4" d="M21.48,17.32c2.3.1,4.48.17,5.92.16h0c.07-1.69.19-3.29.33-4.78h0c-1.6,0-3.77-.06-6-.15h0c-.1,1.52-.18,3.11-.24,4.76Z" transform="translate(0 0.01)"/><path class="cls-4" d="M18.49,12.41c-.11,1.48-.21,3.07-.27,4.74h0c-2.41-.13-4.61-.27-5.77-.36h0c0-1.7,0-3.29,0-4.76h0c1.27.11,3.53.25,6,.38Z" transform="translate(0 0.01)"/><path class="cls-4" d="M21.4,20.5c0,1.9,0,3.81.07,5.74h0c2.08.14,4.16.25,6,.28h0c-.1-2-.13-3.93-.11-5.86h0c-1.71,0-3.79-.06-5.9-.15Z" transform="translate(0 0.01)"/><path class="cls-4" d="M18.2,26c-.08-1.92-.1-3.8-.07-5.66h0c-2.24-.14-4.28-.29-5.66-.45h0c0,1.79.14,3.64.31,5.54h0c1.22.17,3.18.38,5.42.57Z" transform="translate(0 0.01)"/><path class="cls-4" d="M27.6,29.34c-1.74-.09-3.86-.24-6-.41h0c.48,7,2,14,5.32,19.9h0a30,30,0,0,0,5.24-1.21h0c-2.25-4-4.22-12.16-4.56-18.27Z" transform="translate(0 0.01)"/><path class="cls-4" d="M13.07,28.08c1.22.16,3.13.36,5.29.56h0A57.21,57.21,0,0,0,23.92,49.2h0A14.82,14.82,0,0,1,20,48.88h0a58.65,58.65,0,0,1-6.91-20.8Z" transform="translate(0 0.01)"/><path class="cls-5" d="M16,48.36a98.76,98.76,0,0,1-5.45-21.51,100.63,100.63,0,0,1,0-22.62h0A25,25,0,0,0,4,10.62H4c.77,2.8,1.39,6.9,1.12,13.56A46.13,46.13,0,0,1,2.85,37.38h0A25,25,0,0,0,16,48.36Z" transform="translate(0 0.01)"/><path class="cls-5" d="M34.64,46.83a24.61,24.61,0,0,0,8-6.07h0A70.13,70.13,0,0,1,40.2,22.93,95.85,95.85,0,0,1,41.55,6.84h0A24.8,24.8,0,0,0,32.3,1.28h0a84.65,84.65,0,0,0-2,21.93c.28,11.42,2.59,19.34,4.32,23.62Z" transform="translate(0 0.01)"/></g><path class="cls-4" d="M60.16,24.77v7.49H56.48V13.44h6.15A6.15,6.15,0,0,1,67,14.91,5.28,5.28,0,0,1,68.58,19a4.73,4.73,0,0,1-.66,2.54A4.6,4.6,0,0,1,66,23.23a3.61,3.61,0,0,1,2.09,1.63,5.72,5.72,0,0,1,.64,2.85V29a8.33,8.33,0,0,0,.18,1.66A2.25,2.25,0,0,0,69.54,32v.27H65.73a2.17,2.17,0,0,1-.57-1.35,16.87,16.87,0,0,1-.11-1.9V27.73a3.54,3.54,0,0,0-.58-2.18,1.92,1.92,0,0,0-1.65-.78Zm0-2.94h2.46a2.11,2.11,0,0,0,1.7-.68,2.94,2.94,0,0,0,.59-2,3.29,3.29,0,0,0-.59-2.05,2,2,0,0,0-1.69-.76H60.16Z" transform="translate(0 0.01)"/><path class="cls-4" d="M82.26,16.36H78v15.9H74.34V16.36H70.13V13.43H82.26Z" transform="translate(0 0.01)"/><path class="cls-4" d="M88.72,13.43l3.37,13.82h.08l3.42-13.82h4.79V32.26H96.72V26.79L97,19.47l-.07,0-3.6,12.81H90.92l-3.56-12.7h-.08l.32,7.22v5.47H83.94V13.43Z" transform="translate(0 0.01)"/><path class="cls-5" d="M114.54,25.49a7.66,7.66,0,0,1-1.6,5.24,5.54,5.54,0,0,1-4.38,1.8,5.37,5.37,0,0,1-4.28-1.8,7.81,7.81,0,0,1-1.56-5.24V20.22A7.89,7.89,0,0,1,104.27,15a5.34,5.34,0,0,1,4.28-1.82A5.53,5.53,0,0,1,112.94,15a7.67,7.67,0,0,1,1.6,5.24ZM113,20.18A6.54,6.54,0,0,0,111.85,16a4,4,0,0,0-3.3-1.41A3.82,3.82,0,0,0,105.36,16a6.73,6.73,0,0,0-1.12,4.21v5.31a6.8,6.8,0,0,0,1.12,4.25,3.84,3.84,0,0,0,3.2,1.41,4,4,0,0,0,3.3-1.41A6.67,6.67,0,0,0,113,25.49Z" transform="translate(0 0.01)"/><path class="cls-5" d="M129.18,32.26h-1.55l-8.41-15.77h-.07V32.26h-1.57V13.43h1.57l8.4,15.76h.08V13.43h1.55Z" transform="translate(0 0.01)"/><path class="cls-5" d="M134.3,30.94h7.61v1.32h-9.17V13.43h1.56Z" transform="translate(0 0.01)"/><path class="cls-5" d="M146.13,32.26h-1.56V13.43h1.56Z" transform="translate(0 0.01)"/><path class="cls-5" d="M161.4,32.26h-1.56l-8.4-15.77h-.08V32.26h-1.57V13.43h1.57l8.41,15.76h.07V13.43h1.56Z" transform="translate(0 0.01)"/><path class="cls-5" d="M173.9,23.15h-7.4v7.79H175v1.32H165V13.43h10V14.8H166.5v7h7.4Z" transform="translate(0 0.01)"/></g></g></svg>